<svg width="103" height="44" viewBox="0 0 103 44" fill="none" xmlns="http://www.w3.org/2000/svg">
<g filter="url(#filter0_d_102_7)">
<path d="M13.5204 6.6939C14.0493 6.74369 14.549 6.84171 15.0194 6.98797C15.4985 7.1272 15.9385 7.29806 16.3394 7.50054C16.7412 7.69526 17.1014 7.90959 17.4199 8.14355C17.7385 8.3775 18.0065 8.6067 18.2239 8.83113L21.5019 7.0333L17.2294 13.3857L17.3722 9.8571C17.1648 9.68068 16.9358 9.52183 16.685 9.38055C16.4428 9.23224 16.1941 9.10685 15.9388 9.00436C15.6921 8.89485 15.451 8.80547 15.2153 8.73622C14.9805 8.65921 14.7717 8.5964 14.5886 8.54779C14.4056 8.49919 14.2562 8.46551 14.1404 8.44677C14.0334 8.421 13.9759 8.40775 13.9682 8.40702C13.4392 8.35724 12.9891 8.3737 12.6176 8.45641C12.2462 8.53912 11.9367 8.66297 11.6893 8.82797C11.4497 8.99369 11.2652 9.19206 11.1358 9.42308C11.0152 9.64707 10.9407 9.87933 10.9125 10.1199C10.8551 10.6087 10.9075 11.0333 11.0697 11.3938C11.2327 11.7465 11.5049 12.0741 11.8862 12.3767C12.2675 12.6793 12.7634 12.9771 13.3738 13.2699C13.9852 13.5549 14.7071 13.87 15.5395 14.2151C16.0416 14.4271 16.5056 14.6943 16.9318 15.0169C17.3666 15.3324 17.7332 15.6924 18.0318 16.0971C18.3312 16.494 18.5513 16.9305 18.692 17.4066C18.8414 17.8757 18.8856 18.3701 18.8246 18.89C18.7536 19.4952 18.6047 20.0264 18.3781 20.4836C18.1523 20.9331 17.8746 21.3227 17.5449 21.6526C17.2239 21.9754 16.8622 22.2434 16.4597 22.4565C16.0581 22.6619 15.6464 22.8193 15.2247 22.9286C14.8098 23.0465 14.3925 23.117 13.973 23.1403C13.5604 23.1721 13.1751 23.1711 12.8173 23.1374C11.7673 23.0386 10.8354 22.7705 10.0217 22.333C9.20801 21.8955 8.46812 21.3317 7.80206 20.6414L4.52544 22.4276L8.61104 16.7637C8.63881 17.3311 8.73886 17.8858 8.91119 18.4276C9.09221 18.9624 9.33405 19.448 9.63671 19.8844C9.93937 20.3209 10.306 20.6809 10.7367 20.9647C11.1674 21.2484 11.655 21.4159 12.1994 21.4671C12.635 21.5081 13.0394 21.4795 13.4127 21.3813C13.7938 21.2838 14.1254 21.1385 14.4076 20.9454C14.6906 20.7445 14.919 20.5072 15.0927 20.2332C15.2751 19.9523 15.385 19.6528 15.4223 19.3346C15.4742 18.8924 15.3944 18.5004 15.1828 18.1589C14.9722 17.8096 14.6792 17.4917 14.3039 17.2054C13.9295 16.9112 13.494 16.6349 12.9975 16.3763C12.5096 16.1108 12.0066 15.8398 11.4886 15.5636C10.9705 15.2873 10.4669 14.9889 9.9776 14.6682C9.49611 14.3484 9.07454 13.987 8.71288 13.5843C8.35213 13.1738 8.07645 12.7085 7.88583 12.1885C7.69521 11.6685 7.63952 11.0709 7.71874 10.3959C7.77976 9.876 7.94052 9.37728 8.20103 8.89973C8.47024 8.41514 8.84196 7.99512 9.3162 7.63967C9.79822 7.28494 10.3878 7.0188 11.0849 6.84122C11.783 6.65589 12.5948 6.60678 13.5204 6.6939ZM18.8276 22.9853L20.7951 21.6996L23.1452 8.81187L20.695 7.27507L24.9058 6.97713L24.1834 13.5342C24.4925 13.1789 24.8206 12.896 25.1677 12.6855C25.5158 12.4672 25.8497 12.3025 26.1694 12.1914C26.4969 12.081 26.7922 12.0107 27.0552 11.9806C27.3261 11.9511 27.5354 11.9434 27.6832 11.9573C28.4143 12.0261 29.0172 12.2162 29.4918 12.5276C29.9673 12.8313 30.3338 13.2266 30.5912 13.7137C30.8564 14.2015 31.0221 14.7663 31.0883 15.4079C31.1632 16.0426 31.1579 16.7246 31.0723 17.454C31.025 17.8574 30.9394 18.2848 30.8157 18.736C30.6997 19.1879 30.56 19.6416 30.3965 20.0969C30.2338 20.5444 30.057 20.9789 29.866 21.4002C29.6837 21.8145 29.502 22.1897 29.3211 22.5256L31.4809 24.0234L25.3635 24.083L28.1905 22.0074C28.3668 21.4434 28.5078 20.9115 28.6137 20.4115C28.7273 19.9123 28.8097 19.4454 28.8607 19.0109C28.8862 18.7937 28.9016 18.5284 28.9069 18.2151C28.92 17.9025 28.9072 17.5757 28.8686 17.2348C28.8309 16.886 28.7655 16.5386 28.6724 16.1925C28.5793 15.8464 28.4394 15.5312 28.2526 15.2469C28.0735 14.9634 27.8419 14.7258 27.5577 14.5343C27.2812 14.3436 26.9369 14.2288 26.5246 14.19C26.1202 14.1519 25.6936 14.202 25.2448 14.3402C24.8039 14.4791 24.3895 14.7264 24.0017 15.0822L23.2611 22.0965L24.6612 23.5344L18.8276 22.9853ZM43.2416 18.0934C43.1933 18.5046 43.1181 18.9447 43.0159 19.4136C42.9136 19.8826 42.7872 20.357 42.6365 20.8371C42.4935 21.3179 42.3321 21.7891 42.1521 22.2507C41.9808 22.7052 41.8019 23.1238 41.6154 23.5063L43.8956 25.4861L39.519 24.8858L39.9553 23.4795C39.4203 24.0175 38.8274 24.4128 38.1765 24.6653C37.5343 24.9108 36.809 25.0269 36.0005 25.0136C35.3417 24.9987 34.7755 24.8983 34.3019 24.7125C33.8351 24.5352 33.4548 24.2915 33.1609 23.9814C32.8757 23.6643 32.6794 23.2928 32.5721 22.8669C32.4657 22.4333 32.4426 21.9604 32.5027 21.4483C32.5582 20.975 32.7286 20.5282 33.0139 20.1079C33.3 19.6798 33.681 19.3156 34.1566 19.0152C34.64 18.7155 35.2125 18.4948 35.874 18.3531C36.5363 18.2036 37.272 18.167 38.0809 18.2431C38.4543 18.2782 38.878 18.3534 39.352 18.4686C39.8339 18.5846 40.2793 18.7756 40.6885 19.0416C40.7052 18.5646 40.6877 18.0766 40.6362 17.5775C40.5934 17.0714 40.4945 16.6071 40.3397 16.1846C40.1848 15.7621 39.9586 15.4113 39.661 15.1322C39.3722 14.8462 38.9866 14.6804 38.5044 14.635C38.0921 14.5962 37.6816 14.6439 37.2726 14.778C36.8637 14.9121 36.4694 15.1221 36.0898 15.408C35.718 15.6947 35.3692 16.0541 35.0432 16.4862C34.7172 16.9184 34.4272 17.4128 34.1732 17.9694L33.8625 12.1741L35.0778 14.5832C35.4962 14.1675 35.9076 13.8454 36.3119 13.6167C36.7171 13.3803 37.1107 13.2094 37.4927 13.1042C37.8833 12.9919 38.2525 12.9286 38.6002 12.9142C38.9557 12.9006 39.2929 12.9088 39.6118 12.9389C40.207 13.0263 40.7447 13.2024 41.2248 13.4672C41.7136 13.7251 42.1209 14.0733 42.4469 14.5119C42.7738 14.9428 43.0081 15.4591 43.1499 16.0608C43.2993 16.6632 43.3299 17.3408 43.2416 18.0934ZM40.3894 21.5905C40.4304 21.3747 40.4667 21.1663 40.4981 20.9653C40.5296 20.7643 40.5567 20.5668 40.5795 20.3728L40.5959 20.2332C40.3286 20.0982 40.0542 19.99 39.7728 19.9086C39.5001 19.8201 39.2445 19.7529 39.0062 19.707C38.7687 19.6532 38.5644 19.6183 38.3933 19.6022C38.2308 19.5791 38.1224 19.5649 38.0679 19.5598C37.6228 19.5336 37.2282 19.5788 36.8842 19.6955C36.5402 19.8122 36.2461 19.9728 36.0019 20.1773C35.7664 20.3748 35.5783 20.6042 35.4375 20.8655C35.3045 21.1276 35.2226 21.3905 35.1916 21.6543C35.1215 22.2518 35.2121 22.7193 35.4635 23.0567C35.7235 23.3872 36.1336 23.5787 36.6936 23.6314C37.0669 23.6666 37.4286 23.6339 37.7785 23.5335C38.1285 23.4331 38.4601 23.2878 38.7734 23.0976C39.0953 22.9004 39.3894 22.6731 39.6555 22.4158C39.9303 22.1514 40.1749 21.8763 40.3894 21.5905ZM55.0766 16.2537C55.0797 16.8973 55.057 17.5934 55.0085 18.3419C54.9677 19.0912 54.8936 19.857 54.7861 20.6392C54.6785 21.4214 54.5355 22.2042 54.3571 22.9876C54.1795 23.7632 53.9546 24.5069 53.6824 25.2187C53.411 25.9228 53.0906 26.5751 52.7213 27.1758C52.352 27.7765 51.9227 28.2852 51.4334 28.702C50.9509 29.1273 50.4025 29.4444 49.7882 29.6533C49.1808 29.8707 48.4998 29.9439 47.7453 29.8729C46.8897 29.7924 46.0009 29.493 45.0787 28.9747L44.0145 30.6043L43.3613 25.9182C43.6576 26.409 43.9721 26.8112 44.3049 27.125C44.6455 27.4394 44.9743 27.6861 45.2915 27.865C45.6155 28.0524 45.9148 28.1826 46.1893 28.2555C46.4717 28.3291 46.7023 28.3744 46.8812 28.3912C47.519 28.4513 48.1105 28.303 48.6556 27.9463C49.2076 27.5982 49.7156 27.089 50.1796 26.4188C49.6339 25.7085 49.1101 24.9453 48.6082 24.1292C48.115 23.3061 47.6817 22.4416 47.3083 21.5357C46.9358 20.622 46.6422 19.6726 46.4276 18.6875C46.2207 17.7031 46.1311 16.6905 46.1589 15.6497L44.3657 14.4454L49.8578 14.1857L48.6946 15.453C48.7137 17.0316 48.9228 18.6007 49.3217 20.1602C49.7206 21.7196 50.2918 23.3188 51.0353 24.9578C51.3058 24.3949 51.5546 23.7829 51.7816 23.1217C52.0164 22.4613 52.2285 21.7596 52.418 21.0164C52.6152 20.274 52.7884 19.5019 52.9375 18.7001C53.0876 17.8905 53.2196 17.0674 53.3335 16.2309L51.7945 14.368C52.4346 14.4753 52.9974 14.5714 53.4829 14.6563C53.9761 14.742 54.4037 14.8175 54.7657 14.883C55.1285 14.9407 55.433 14.9929 55.6792 15.0396C55.934 15.0793 56.1427 15.1107 56.3051 15.1338C56.6826 15.2007 56.9063 15.2375 56.9763 15.244L55.0766 16.2537ZM57.8743 19.5531L58.1959 17.8182L65.9364 17.8996L65.5976 20.786L57.8743 19.5531ZM77.8231 21.3484C77.7748 21.7596 77.6996 22.1997 77.5974 22.6686C77.4952 23.1375 77.3687 23.612 77.218 24.0921C77.0751 24.5729 76.9136 25.044 76.7336 25.5056C76.5623 25.9602 76.3834 26.3788 76.197 26.7613L78.4772 28.7411L74.1005 28.1408L74.5369 26.7345C74.0019 27.2725 73.4089 27.6678 72.758 27.9203C72.1158 28.1658 71.3905 28.2819 70.5821 28.2686C69.9232 28.2536 69.357 28.1533 68.8834 27.9675C68.4166 27.7902 68.0363 27.5465 67.7424 27.2364C67.4572 26.9193 67.2609 26.5478 67.1536 26.1219C67.0472 25.6883 67.0241 25.2154 67.0842 24.7033C67.1398 24.23 67.3102 23.7832 67.5954 23.3629C67.8816 22.9348 68.2625 22.5705 68.7381 22.2701C69.2215 21.9705 69.794 21.7498 70.4555 21.6081C71.1179 21.4586 71.8535 21.4219 72.6625 21.4981C73.0358 21.5332 73.4595 21.6084 73.9336 21.7236C74.4154 21.8396 74.8609 22.0306 75.27 22.2966C75.2867 21.8196 75.2693 21.3316 75.2177 20.8325C75.1749 20.3264 75.0761 19.8621 74.9212 19.4396C74.7663 19.017 74.5401 18.6663 74.2426 18.3872C73.9537 18.1011 73.5682 17.9354 73.0859 17.89C72.6737 17.8512 72.2631 17.8989 71.8541 18.033C71.4452 18.1671 71.0509 18.3771 70.6714 18.663C70.2996 18.9496 69.9507 19.309 69.6247 19.7412C69.2988 20.1734 69.0088 20.6678 68.7547 21.2244L68.444 15.4291L69.6593 17.8382C70.0777 17.4225 70.4891 17.1004 70.8934 16.8717C71.2986 16.6353 71.6922 16.4644 72.0742 16.3592C72.4648 16.2469 72.834 16.1836 73.1817 16.1692C73.5372 16.1556 73.8744 16.1638 74.1933 16.1938C74.7886 16.2812 75.3262 16.4574 75.8063 16.7222C76.2951 16.98 76.7025 17.3283 77.0285 17.7669C77.3554 18.1977 77.5897 18.714 77.7314 19.3157C77.8809 19.9182 77.9114 20.5957 77.8231 21.3484ZM74.9709 24.8455C75.0119 24.6297 75.0482 24.4213 75.0797 24.2203C75.1111 24.0193 75.1382 23.8218 75.161 23.6278L75.1774 23.4881C74.9101 23.3532 74.6358 23.245 74.3544 23.1636C74.0816 23.0751 73.8261 23.0079 73.5877 22.962C73.3502 22.9082 73.1459 22.8733 72.9748 22.8572C72.8124 22.8341 72.7039 22.8199 72.6495 22.8148C72.2043 22.7886 71.8097 22.8338 71.4657 22.9505C71.1218 23.0672 70.8277 23.2278 70.5835 23.4323C70.348 23.6298 70.1598 23.8592 70.0191 24.1205C69.8861 24.3826 69.8041 24.6455 69.7731 24.9093C69.703 25.5068 69.7936 25.9742 70.045 26.3117C70.305 26.6421 70.7151 26.8337 71.2751 26.8864C71.6485 26.9216 72.0101 26.8889 72.36 26.7885C72.71 26.6881 73.0416 26.5428 73.3549 26.3526C73.6769 26.1554 73.9709 25.9281 74.237 25.6707C74.5119 25.4063 74.7565 25.1313 74.9709 24.8455ZM78.3118 28.8432L80.041 27.2761L81.7605 19.4596L79.5064 17.4588L83.4418 18.0999L83.3025 19.2871C83.6445 18.9192 83.9877 18.6416 84.3321 18.4543C84.6843 18.2678 85.0024 18.137 85.2865 18.0617C85.6191 17.9753 85.9418 17.939 86.2548 17.9528C86.807 18.0048 87.2955 18.1645 87.7202 18.432C88.1449 18.6995 88.4663 19.0435 88.6843 19.4641C89.0565 19.1069 89.4658 18.8356 89.9123 18.6501C90.3596 18.4568 90.8283 18.3833 91.3183 18.4294C91.7617 18.4711 92.1621 18.6108 92.5195 18.8484C92.877 19.086 93.1704 19.4 93.3998 19.7903C93.6371 20.1813 93.8025 20.648 93.8961 21.1903C93.9984 21.7255 94.0123 22.3113 93.9376 22.9475C93.8839 23.4053 93.7967 23.8796 93.6762 24.3703C93.5635 24.8618 93.4279 25.3472 93.2694 25.8265C93.1187 26.3065 92.946 26.7727 92.7514 27.2251C92.5576 27.6697 92.3559 28.0822 92.1461 28.4626L93.7168 29.3518L87.8028 29.8895L90.597 28.0932C90.8198 27.2669 90.9873 26.5099 91.0994 25.8223C91.2203 25.1276 91.3094 24.5359 91.3668 24.047C91.5134 22.7978 91.4683 21.8757 91.2314 21.2807C91.0023 20.6865 90.6116 20.3634 90.0594 20.3114C89.7249 20.2799 89.3763 20.3687 89.0137 20.5777C89.0385 20.7683 89.0386 20.9684 89.014 21.1779C88.9584 21.6512 88.8622 22.1364 88.7252 22.6334C88.596 23.1312 88.4444 23.619 88.2703 24.0968C88.0963 24.5747 87.9085 25.0356 87.707 25.4794C87.5055 25.9233 87.309 26.3245 87.1175 26.6831L88.6109 28.1298L83.9091 27.6873L85.633 26.5669C85.8111 25.8541 85.9637 25.1232 86.0909 24.3742C86.2191 23.6174 86.3223 22.9054 86.4006 22.2381C86.4935 21.4467 86.473 20.8171 86.3391 20.3495C86.2131 19.8827 85.9128 19.6269 85.4383 19.5822C85.1972 19.5595 84.9662 19.5849 84.7452 19.6582C84.5321 19.7323 84.3269 19.8385 84.1298 19.9768C83.9405 20.1159 83.7562 20.279 83.577 20.4661C83.4055 20.6539 83.2448 20.8506 83.0949 21.0562L82.3504 27.3993L84.1466 28.9805L78.3118 28.8432Z" fill="#C85E57"/>
</g>
<g filter="url(#filter1_d_102_7)">
<path d="M15.8792 6.84503C16.4081 6.89481 16.9078 6.99283 17.3782 7.13909C17.8573 7.27833 18.2973 7.44918 18.6982 7.65166C19.1 7.84638 19.4602 8.06072 19.7787 8.29467C20.0973 8.52862 20.3653 8.75782 20.5827 8.98225L23.8607 7.18442L19.5882 13.5368L19.731 10.0082C19.5236 9.8318 19.2945 9.67296 19.0438 9.53168C18.8016 9.38337 18.5529 9.25797 18.2976 9.15549C18.0509 9.04598 17.8097 8.95659 17.5741 8.88734C17.3393 8.81033 17.1305 8.74752 16.9474 8.69892C16.7644 8.65031 16.615 8.61663 16.4992 8.59789C16.3922 8.57213 16.3347 8.55888 16.327 8.55814C15.798 8.50836 15.3479 8.52482 14.9764 8.60754C14.605 8.69025 14.2955 8.8141 14.0481 8.97909C13.8084 9.14481 13.624 9.34318 13.4946 9.5742C13.374 9.79819 13.2995 10.0305 13.2713 10.271C13.2139 10.7598 13.2663 11.1845 13.4285 11.5449C13.5915 11.8976 13.8637 12.2252 14.245 12.5279C14.6263 12.8305 15.1221 13.1282 15.7326 13.421C16.344 13.706 17.0659 14.0211 17.8983 14.3662C18.4004 14.5782 18.8644 14.8454 19.2905 15.168C19.7254 15.4835 20.092 15.8436 20.3906 16.2482C20.69 16.6451 20.9101 17.0816 21.0508 17.5577C21.2002 18.0268 21.2444 18.5212 21.1834 19.0411C21.1124 19.6463 20.9635 20.1775 20.7368 20.6348C20.5111 21.0842 20.2334 21.4738 19.9037 21.8037C19.5827 22.1265 19.221 22.3945 18.8185 22.6076C18.4169 22.813 18.0052 22.9704 17.5834 23.0798C17.1685 23.1976 16.7513 23.2682 16.3318 23.2914C15.9192 23.3232 15.5339 23.3222 15.1761 23.2886C14.1261 23.1897 13.1942 22.9216 12.3805 22.4841C11.5668 22.0467 10.8269 21.4828 10.1609 20.7925L6.88424 22.5787L10.9698 16.9148C10.9976 17.4822 11.0977 18.0369 11.27 18.5787C11.451 19.1135 11.6928 19.5991 11.9955 20.0356C12.2982 20.472 12.6648 20.8321 13.0955 21.1158C13.5262 21.3995 14.0138 21.567 14.5582 21.6183C14.9938 21.6593 15.3982 21.6306 15.7715 21.5324C16.1526 21.4349 16.4842 21.2896 16.7664 21.0965C17.0494 20.8957 17.2778 20.6583 17.4515 20.3844C17.6339 20.1034 17.7438 19.8039 17.7811 19.4858C17.833 19.0435 17.7532 18.6516 17.5416 18.31C17.331 17.9607 17.038 17.6429 16.6627 17.3565C16.2883 17.0624 15.8528 16.786 15.3562 16.5275C14.8684 16.2619 14.3654 15.991 13.8474 15.7147C13.3293 15.4384 12.8257 15.14 12.3364 14.8194C11.8549 14.4995 11.4333 14.1382 11.0717 13.7354C10.7109 13.3249 10.4352 12.8596 10.2446 12.3396C10.054 11.8196 9.99831 11.222 10.0775 10.547C10.1386 10.0271 10.2993 9.52841 10.5598 9.05085C10.829 8.56627 11.2008 8.14625 11.675 7.79079C12.157 7.43607 12.7466 7.16992 13.4437 6.99234C14.1418 6.80701 14.9536 6.7579 15.8792 6.84503ZM21.1864 23.1365L23.1539 21.8507L25.504 8.963L23.0538 7.42619L27.2646 7.12825L26.5422 13.6853C26.8513 13.33 27.1794 13.0471 27.5265 12.8366C27.8746 12.6183 28.2085 12.4536 28.5282 12.3425C28.8557 12.2321 29.151 12.1618 29.414 12.1317C29.6849 12.1023 29.8942 12.0945 30.042 12.1084C30.7731 12.1772 31.376 12.3673 31.8506 12.6787C32.3261 12.9824 32.6926 13.3777 32.95 13.8648C33.2152 14.3526 33.3809 14.9174 33.4471 15.5591C33.522 16.1937 33.5167 16.8757 33.4311 17.6051C33.3838 18.0086 33.2982 18.4359 33.1745 18.8871C33.0585 19.3391 32.9188 19.7927 32.7552 20.248C32.5926 20.6955 32.4158 21.13 32.2248 21.5513C32.0425 21.9656 31.8608 22.3408 31.6799 22.6768L33.8397 24.1745L27.7223 24.2341L30.5493 22.1585C30.7256 21.5946 30.8666 21.0626 30.9725 20.5627C31.0861 20.0634 31.1685 19.5966 31.2195 19.162C31.245 18.9448 31.2604 18.6795 31.2657 18.3662C31.2788 18.0536 31.266 17.7269 31.2274 17.3859C31.1897 17.0372 31.1243 16.6898 31.0312 16.3437C30.9381 15.9976 30.7982 15.6824 30.6114 15.3981C30.4323 15.1145 30.2007 14.8769 29.9165 14.6854C29.64 14.4947 29.2957 14.3799 28.8834 14.3411C28.479 14.303 28.0524 14.3531 27.6036 14.4913C27.1627 14.6302 26.7483 14.8775 26.3605 15.2333L25.6199 22.2476L27.02 23.6855L21.1864 23.1365ZM45.6004 18.2445C45.5521 18.6558 45.4769 19.0958 45.3747 19.5648C45.2724 20.0337 45.146 20.5082 44.9953 20.9882C44.8523 21.469 44.6909 21.9402 44.5109 22.4018C44.3396 22.8564 44.1607 23.2749 43.9742 23.6575L46.2544 25.6372L41.8778 25.037L42.3141 23.6306C41.7791 24.1687 41.1862 24.5639 40.5353 24.8165C39.8931 25.062 39.1678 25.1781 38.3593 25.1647C37.7005 25.1498 37.1343 25.0494 36.6607 24.8636C36.1939 24.6863 35.8136 24.4426 35.5197 24.1326C35.2345 23.8154 35.0382 23.444 34.9309 23.0181C34.8245 22.5844 34.8014 22.1116 34.8615 21.5994C34.917 21.1261 35.0874 20.6793 35.3727 20.259C35.6588 19.8309 36.0397 19.4667 36.5154 19.1663C36.9988 18.8666 37.5713 18.6459 38.2327 18.5042C38.8951 18.3547 39.6308 18.3181 40.4397 18.3942C40.8131 18.4294 41.2368 18.5045 41.7108 18.6198C42.1926 18.7357 42.6381 18.9267 43.0473 19.1927C43.064 18.7158 43.0465 18.2277 42.995 17.7286C42.9522 17.2225 42.8533 16.7582 42.6984 16.3357C42.5436 15.9132 42.3174 15.5624 42.0198 15.2834C41.731 14.9973 41.3454 14.8316 40.8632 14.7862C40.4509 14.7474 40.0404 14.795 39.6314 14.9291C39.2225 15.0632 38.8282 15.2732 38.4486 15.5591C38.0768 15.8458 37.728 16.2052 37.402 16.6374C37.076 17.0695 36.786 17.5639 36.532 18.1205L36.2212 12.3252L37.4366 14.7343C37.855 14.3187 38.2664 13.9965 38.6707 13.7678C39.0759 13.5314 39.4695 13.3606 39.8514 13.2553C40.2421 13.143 40.6113 13.0797 40.959 13.0654C41.3145 13.0518 41.6516 13.06 41.9706 13.09C42.5658 13.1774 43.1035 13.3535 43.5836 13.6184C44.0723 13.8762 44.4797 14.2244 44.8057 14.663C45.1326 15.0939 45.3669 15.6102 45.5086 16.2119C45.6581 16.8143 45.6887 17.4919 45.6004 18.2445ZM42.7482 21.7416C42.7892 21.5258 42.8255 21.3174 42.8569 21.1164C42.8884 20.9154 42.9155 20.7179 42.9383 20.5239L42.9546 20.3843C42.6874 20.2493 42.413 20.1411 42.1316 20.0597C41.8589 19.9713 41.6033 19.9041 41.365 19.8581C41.1275 19.8044 40.9232 19.7694 40.7521 19.7533C40.5896 19.7302 40.4812 19.7161 40.4267 19.7109C39.9816 19.6847 39.587 19.73 39.243 19.8466C38.899 19.9633 38.6049 20.1239 38.3607 20.3284C38.1252 20.5259 37.9371 20.7553 37.7963 21.0167C37.6633 21.2787 37.5814 21.5417 37.5504 21.8055C37.4803 22.4029 37.5709 22.8704 37.8223 23.2078C38.0823 23.5383 38.4924 23.7298 39.0524 23.7826C39.4257 23.8177 39.7874 23.7851 40.1373 23.6846C40.4873 23.5842 40.8189 23.4389 41.1322 23.2487C41.4541 23.0515 41.7482 22.8243 42.0143 22.5669C42.2891 22.3025 42.5337 22.0274 42.7482 21.7416ZM57.4354 16.4049C57.4385 17.0484 57.4158 17.7445 57.3673 18.4931C57.3265 19.2423 57.2524 20.0081 57.1448 20.7903C57.0373 21.5725 56.8943 22.3553 56.7159 23.1387C56.5383 23.9143 56.3134 24.6581 56.0412 25.3699C55.7698 26.0739 55.4494 26.7263 55.0801 27.3269C54.7108 27.9276 54.2815 28.4364 53.7922 28.8531C53.3097 29.2784 52.7613 29.5955 52.147 29.8044C51.5396 30.0218 50.8586 30.095 50.1041 30.024C49.2485 29.9435 48.3596 29.6441 47.4375 29.1258L46.3733 30.7555L45.7201 26.0694C46.0164 26.5601 46.3309 26.9623 46.6637 27.2761C47.0043 27.5906 47.3331 27.8373 47.6503 28.0162C47.9743 28.2036 48.2736 28.3337 48.5481 28.4066C48.8305 28.4803 49.0611 28.5255 49.24 28.5423C49.8778 28.6024 50.4693 28.4541 51.0144 28.0975C51.5664 27.7493 52.0744 27.2402 52.5384 26.5699C51.9927 25.8596 51.4689 25.0964 50.967 24.2803C50.4738 23.4573 50.0405 22.5928 49.6671 21.6868C49.2946 20.7731 49.001 19.8237 48.7864 18.8386C48.5795 17.8542 48.4899 16.8416 48.5177 15.8008L46.7245 14.5965L52.2166 14.3368L51.0534 15.6041C51.0725 17.1828 51.2816 18.7518 51.6805 20.3113C52.0794 21.8707 52.6506 23.47 53.3941 25.1089C53.6646 24.546 53.9134 23.934 54.1404 23.2729C54.3752 22.6124 54.5873 21.9107 54.7767 21.1675C54.974 20.4251 55.1472 19.653 55.2963 18.8512C55.4464 18.0416 55.5784 17.2185 55.6923 16.382L54.1533 14.5191C54.7934 14.6264 55.3562 14.7225 55.8417 14.8075C56.3349 14.8931 56.7625 14.9687 57.1245 15.0341C57.4873 15.0918 57.7918 15.144 58.038 15.1907C58.2928 15.2304 58.5015 15.2618 58.6639 15.2849C59.0414 15.3518 59.2651 15.3886 59.3351 15.3952L57.4354 16.4049ZM60.2331 19.7042L60.5547 17.9694L68.2952 18.0507L67.9564 20.9371L60.2331 19.7042ZM80.1819 21.4995C80.1336 21.9107 80.0584 22.3508 79.9562 22.8197C79.854 23.2887 79.7275 23.7631 79.5768 24.2432C79.4339 24.724 79.2724 25.1952 79.0924 25.6568C78.9211 26.1113 78.7422 26.5299 78.5558 26.9124L80.836 28.8922L76.4593 28.2919L76.8957 26.8856C76.3607 27.4236 75.7677 27.8189 75.1168 28.0714C74.4746 28.317 73.7493 28.433 72.9409 28.4197C72.282 28.4048 71.7158 28.3044 71.2422 28.1186C70.7754 27.9413 70.3951 27.6976 70.1012 27.3875C69.816 27.0704 69.6197 26.6989 69.5124 26.2731C69.406 25.8394 69.3829 25.3665 69.443 24.8544C69.4986 24.3811 69.669 23.9343 69.9542 23.514C70.2404 23.0859 70.6213 22.7217 71.0969 22.4213C71.5803 22.1216 72.1528 21.9009 72.8143 21.7592C73.4767 21.6097 74.2123 21.5731 75.0213 21.6492C75.3946 21.6843 75.8183 21.7595 76.2923 21.8747C76.7742 21.9907 77.2197 22.1817 77.6288 22.4477C77.6455 21.9707 77.6281 21.4827 77.5765 20.9836C77.5337 20.4775 77.4349 20.0132 77.28 19.5907C77.1251 19.1682 76.8989 18.8174 76.6014 18.5383C76.3125 18.2523 75.927 18.0865 75.4447 18.0411C75.0325 18.0023 74.6219 18.05 74.2129 18.1841C73.804 18.3182 73.4097 18.5282 73.0302 18.8141C72.6584 19.1008 72.3095 19.4602 71.9835 19.8923C71.6576 20.3245 71.3675 20.8189 71.1135 21.3755L70.8028 15.5802L72.0181 17.9893C72.4365 17.5736 72.8479 17.2515 73.2522 17.0228C73.6574 16.7864 74.051 16.6155 74.433 16.5103C74.8236 16.398 75.1928 16.3347 75.5405 16.3204C75.896 16.3067 76.2332 16.3149 76.5521 16.345C77.1474 16.4324 77.685 16.6085 78.1651 16.8733C78.6539 17.1312 79.0613 17.4794 79.3873 17.918C79.7142 18.3489 79.9485 18.8652 80.0902 19.4669C80.2397 20.0693 80.2702 20.7469 80.1819 21.4995ZM77.3297 24.9966C77.3707 24.7808 77.407 24.5724 77.4384 24.3714C77.4699 24.1704 77.497 23.9729 77.5198 23.7789L77.5362 23.6393C77.2689 23.5043 76.9946 23.3961 76.7132 23.3147C76.4404 23.2262 76.1849 23.159 75.9465 23.1131C75.709 23.0593 75.5047 23.0244 75.3336 23.0083C75.1712 22.9852 75.0627 22.9711 75.0083 22.9659C74.5631 22.9397 74.1685 22.9849 73.8245 23.1016C73.4805 23.2183 73.1865 23.3789 72.9423 23.5834C72.7068 23.7809 72.5186 24.0103 72.3778 24.2716C72.2449 24.5337 72.1629 24.7966 72.1319 25.0604C72.0618 25.6579 72.1524 26.1254 72.4038 26.4628C72.6638 26.7933 73.0739 26.9848 73.6339 27.0375C74.0073 27.0727 74.3689 27.04 74.7188 26.9396C75.0688 26.8392 75.4004 26.6939 75.7137 26.5037C76.0357 26.3065 76.3297 26.0792 76.5958 25.8219C76.8707 25.5575 77.1153 25.2824 77.3297 24.9966ZM80.6706 28.9943L82.3998 27.4272L84.1193 19.6108L81.8652 17.6099L85.8006 18.251L85.6613 19.4382C86.0033 19.0703 86.3465 18.7927 86.6909 18.6055C87.0431 18.419 87.3612 18.2881 87.6453 18.2128C87.9778 18.1265 88.3006 18.0902 88.6135 18.1039C89.1658 18.1559 89.6543 18.3156 90.079 18.5831C90.5037 18.8506 90.8251 19.1946 91.0431 19.6153C91.4153 19.258 91.8246 18.9867 92.2711 18.8012C92.7184 18.608 93.1871 18.5344 93.6771 18.5805C94.1205 18.6223 94.5209 18.7619 94.8783 18.9995C95.2358 19.2372 95.5292 19.5511 95.7586 19.9414C95.9958 20.3325 96.1613 20.7991 96.2549 21.3414C96.3572 21.8766 96.3711 22.4624 96.2964 23.0986C96.2427 23.5564 96.1555 24.0307 96.035 24.5214C95.9223 25.0129 95.7867 25.4983 95.6282 25.9776C95.4775 26.4577 95.3048 26.9239 95.1102 27.3762C94.9164 27.8209 94.7147 28.2333 94.5049 28.6137L96.0756 29.5029L90.1616 30.0406L92.9558 28.2443C93.1786 27.418 93.3461 26.6611 93.4582 25.9734C93.5791 25.2787 93.6682 24.687 93.7256 24.1982C93.8722 22.9489 93.8271 22.0268 93.5902 21.4318C93.3611 20.8376 92.9704 20.5145 92.4182 20.4625C92.0837 20.431 91.7351 20.5198 91.3725 20.7289C91.3973 20.9195 91.3974 21.1195 91.3728 21.329C91.3172 21.8023 91.221 22.2875 91.084 22.7845C90.9548 23.2823 90.8032 23.7701 90.6291 24.248C90.4551 24.7258 90.2673 25.1867 90.0658 25.6306C89.8643 26.0745 89.6678 26.4757 89.4763 26.8342L90.9697 28.2809L86.2679 27.8384L87.9918 26.718C88.1699 26.0052 88.3225 25.2743 88.4497 24.5253C88.5778 23.7685 88.6811 23.0565 88.7594 22.3892C88.8523 21.5978 88.8318 20.9683 88.6979 20.5007C88.5719 20.0338 88.2716 19.778 87.7971 19.7334C87.556 19.7107 87.325 19.736 87.104 19.8093C86.8909 19.8834 86.6857 19.9896 86.4886 20.128C86.2993 20.267 86.115 20.4301 85.9358 20.6172C85.7643 20.8051 85.6036 21.0017 85.4537 21.2073L84.7092 27.5505L86.5054 29.1316L80.6706 28.9943Z" fill="#57ADC8"/>
</g>
<defs>
<filter id="filter0_d_102_7" x="0.00772095" y="5.24861" width="99.5545" height="37.9691" filterUnits="userSpaceOnUse" color-interpolation-filters="sRGB">
<feFlood flood-opacity="0" result="BackgroundImageFix"/>
<feColorMatrix in="SourceAlpha" type="matrix" values="0 0 0 0 0 0 0 0 0 0 0 0 0 0 0 0 0 0 127 0" result="hardAlpha"/>
<feOffset dy="4"/>
<feGaussianBlur stdDeviation="2"/>
<feComposite in2="hardAlpha" operator="out"/>
<feColorMatrix type="matrix" values="0 0 0 0 0 0 0 0 0 0 0 0 0 0 0 0 0 0 0.25 0"/>
<feBlend mode="normal" in2="BackgroundImageFix" result="effect1_dropShadow_102_7"/>
<feBlend mode="normal" in="SourceGraphic" in2="effect1_dropShadow_102_7" result="shape"/>
</filter>
<filter id="filter1_d_102_7" x="2.36652" y="5.39973" width="99.5545" height="37.9691" filterUnits="userSpaceOnUse" color-interpolation-filters="sRGB">
<feFlood flood-opacity="0" result="BackgroundImageFix"/>
<feColorMatrix in="SourceAlpha" type="matrix" values="0 0 0 0 0 0 0 0 0 0 0 0 0 0 0 0 0 0 127 0" result="hardAlpha"/>
<feOffset dy="4"/>
<feGaussianBlur stdDeviation="2"/>
<feComposite in2="hardAlpha" operator="out"/>
<feColorMatrix type="matrix" values="0 0 0 0 0 0 0 0 0 0 0 0 0 0 0 0 0 0 0.25 0"/>
<feBlend mode="normal" in2="BackgroundImageFix" result="effect1_dropShadow_102_7"/>
<feBlend mode="normal" in="SourceGraphic" in2="effect1_dropShadow_102_7" result="shape"/>
</filter>
</defs>
</svg>
