<svg width="64" height="30" viewBox="0 0 64 30" fill="none" xmlns="http://www.w3.org/2000/svg">
<g filter="url(#filter0_d_102_6)">
<path d="M10.0399 4.11592C10.3481 4.14831 10.6396 4.20873 10.9145 4.29719C11.1943 4.38159 11.4516 4.48424 11.6863 4.60514C11.9215 4.72151 12.1326 4.8491 12.3197 4.9879C12.5067 5.1267 12.6643 5.2624 12.7924 5.39501L14.6879 4.36386L12.245 8.05255L12.3037 5.98977C12.1818 5.88531 12.0474 5.79098 11.9004 5.7068C11.7585 5.61857 11.6129 5.54369 11.4635 5.48217C11.3192 5.41659 11.1782 5.36282 11.0406 5.32086C10.9034 5.27437 10.7814 5.23634 10.6745 5.20678C10.5676 5.17722 10.4805 5.1566 10.4129 5.14492C10.3504 5.12919 10.3169 5.12108 10.3124 5.1206C10.0042 5.08821 9.74228 5.09505 9.52665 5.14112C9.31102 5.18719 9.13177 5.25771 8.9889 5.35267C8.85056 5.44811 8.74455 5.56298 8.67086 5.69729C8.60218 5.82755 8.56046 5.96292 8.54569 6.10343C8.51568 6.38896 8.54911 6.63763 8.64599 6.84944C8.74335 7.05672 8.90404 7.25003 9.12805 7.42938C9.35207 7.60872 9.64276 7.78591 10.0001 7.96094C10.358 8.13144 10.7803 8.32018 11.2672 8.52716C11.5609 8.65425 11.8328 8.81343 12.0831 9.0047C12.3384 9.19192 12.5543 9.40478 12.7308 9.64329C12.9079 9.87727 13.039 10.1339 13.1242 10.4132C13.2144 10.6885 13.2435 10.978 13.2116 11.2816C13.1745 11.6351 13.0915 11.9449 12.9627 12.2109C12.8344 12.4724 12.6755 12.6985 12.4859 12.8894C12.3013 13.0762 12.0926 13.2307 11.8598 13.3528C11.6275 13.4705 11.3889 13.56 11.1442 13.6213C10.9035 13.6877 10.6612 13.7263 10.4172 13.7374C10.1772 13.7534 9.95296 13.7504 9.74447 13.7285C9.13261 13.6642 8.58836 13.5016 8.11171 13.2407C7.63507 12.9798 7.20052 12.6455 6.80806 12.2376L4.91326 13.262L7.2521 9.97477C7.27219 10.3068 7.33426 10.6318 7.43831 10.9498C7.54738 11.2637 7.6915 11.5492 7.87068 11.8063C8.04987 12.0634 8.26578 12.2763 8.51842 12.4449C8.77106 12.6135 9.05601 12.7145 9.37327 12.7478C9.62708 12.7745 9.86228 12.7603 10.0789 12.7051C10.3 12.6505 10.492 12.5675 10.6549 12.4564C10.8183 12.3406 10.9496 12.2032 11.0488 12.0441C11.153 11.8809 11.2149 11.7064 11.2344 11.5206C11.2616 11.2623 11.2124 11.0325 11.0869 10.8315C10.9619 10.6259 10.7891 10.4382 10.5687 10.2684C10.3487 10.094 10.0933 9.92971 9.80253 9.77543C9.51674 9.61708 9.22212 9.45552 8.91867 9.29073C8.61522 9.12595 8.32 8.94828 8.03301 8.75774C7.75055 8.56766 7.50267 8.35373 7.28938 8.11594C7.07656 7.87362 6.91288 7.5998 6.79833 7.29449C6.68379 6.98918 6.64724 6.63936 6.68868 6.24505C6.7206 5.94139 6.81072 5.65071 6.95905 5.37303C7.11238 5.09129 7.32584 4.84795 7.59941 4.643C7.87752 4.43852 8.21884 4.28652 8.62339 4.18699C9.02841 4.08292 9.5006 4.05923 10.0399 4.11592ZM13.2417 13.6768L14.378 12.937L15.6567 5.41424L14.2199 4.50026L16.6688 4.3521L16.2937 8.18251C16.4711 7.97662 16.6601 7.81319 16.8607 7.69222C17.0618 7.56672 17.255 7.47247 17.4403 7.40946C17.6302 7.34694 17.8016 7.30767 17.9545 7.29166C18.1119 7.27613 18.2337 7.27289 18.3198 7.28194C18.7458 7.32672 19.0981 7.44164 19.3765 7.62671C19.6553 7.80724 19.8714 8.04073 20.0246 8.3272C20.1823 8.61413 20.2826 8.94545 20.3256 9.32114C20.3736 9.69278 20.3753 10.0916 20.3305 10.5177C20.3057 10.7533 20.2589 11.0027 20.19 11.2659C20.1256 11.5295 20.0474 11.7939 19.9554 12.0592C19.8638 12.3199 19.7639 12.5729 19.6557 12.8181C19.5524 13.0593 19.4493 13.2776 19.3462 13.473L20.6137 14.3623L17.0535 14.3593L18.6846 13.1628C18.7833 12.8341 18.8617 12.5239 18.9199 12.2321C18.9826 11.9409 19.0273 11.6683 19.054 11.4145C19.0673 11.2876 19.0744 11.1326 19.0753 10.9494C19.0808 10.7666 19.0711 10.5755 19.0463 10.3758C19.0219 10.1716 18.9814 9.96803 18.9249 9.76505C18.8683 9.56206 18.7847 9.37685 18.674 9.20941C18.5678 9.04245 18.4313 8.90209 18.2646 8.78833C18.1023 8.67505 17.9011 8.60579 17.6609 8.58054C17.4252 8.55577 17.1773 8.5824 16.917 8.66045C16.6613 8.73897 16.4219 8.88105 16.1986 9.08671L15.8161 13.1844L16.6409 14.0341L13.2417 13.6768ZM27.418 10.967C27.3928 11.2072 27.352 11.4642 27.2958 11.7378C27.2395 12.0114 27.1692 12.2881 27.0848 12.5679C27.0049 12.8482 26.9142 13.1228 26.8126 13.3916C26.7161 13.6564 26.6149 13.9001 26.509 14.1227L27.8499 15.2947L25.2983 14.9165L25.5425 14.0967C25.2349 14.4081 24.8925 14.6356 24.5154 14.7792C24.1433 14.9188 23.7219 14.9822 23.2513 14.9694C22.8677 14.9566 22.5374 14.8944 22.2605 14.7828C21.9875 14.6762 21.7645 14.5313 21.5913 14.3482C21.4231 14.1609 21.3063 13.9425 21.2409 13.6927C21.176 13.4384 21.1592 13.1617 21.1907 12.8626C21.2197 12.5861 21.3158 12.3259 21.4789 12.0818C21.6425 11.8332 21.8617 11.6226 22.1365 11.4498C22.4158 11.2776 22.7475 11.152 23.1315 11.0733C23.516 10.9899 23.9439 10.9731 24.4153 11.0226C24.6329 11.0455 24.88 11.0921 25.1567 11.1624C25.438 11.2332 25.6986 11.3476 25.9386 11.5058C25.945 11.2269 25.9315 10.9414 25.898 10.6492C25.8696 10.3529 25.8088 10.0807 25.7158 9.83268C25.6227 9.58461 25.4886 9.37806 25.3135 9.21302C25.1434 9.04392 24.9178 8.9446 24.6368 8.91507C24.3966 8.88982 24.1579 8.91514 23.9209 8.99104C23.6838 9.06693 23.4557 9.18731 23.2368 9.35217C23.0224 9.51751 22.8218 9.72555 22.635 9.97629C22.4483 10.227 22.2829 10.5144 22.1389 10.8383L21.918 7.44704L22.642 8.8635C22.8827 8.62301 23.1199 8.43715 23.3536 8.30592C23.5878 8.17015 23.8157 8.07267 24.0373 8.01348C24.2639 7.95023 24.4784 7.91549 24.6807 7.90926C24.8875 7.9035 25.0838 7.91039 25.2696 7.92992C25.6167 7.98473 25.9309 8.09107 26.2121 8.24894C26.4984 8.40275 26.7379 8.60893 26.9307 8.86748C27.124 9.12149 27.2639 9.42489 27.3506 9.77768C27.4418 10.1309 27.4642 10.5274 27.418 10.967ZM25.7821 12.9946C25.8045 12.8687 25.8242 12.747 25.8411 12.6297C25.858 12.5123 25.8724 12.397 25.8843 12.2836L25.8929 12.2021C25.7364 12.1215 25.576 12.0565 25.4116 12.0071C25.2522 11.9537 25.103 11.9128 24.964 11.8845C24.8254 11.8516 24.7062 11.8299 24.6065 11.8194C24.5118 11.8049 24.4486 11.7959 24.4169 11.7926C24.1576 11.7745 23.9282 11.7985 23.7288 11.8646C23.5294 11.9307 23.3593 12.0228 23.2186 12.1409C23.0829 12.255 22.975 12.388 22.8949 12.5399C22.8193 12.6924 22.7734 12.8457 22.7572 12.9998C22.7205 13.3487 22.7765 13.6227 22.9251 13.8216C23.0788 14.0165 23.3188 14.1311 23.6451 14.1654C23.8626 14.1882 24.0729 14.1714 24.2759 14.1148C24.4789 14.0582 24.6709 13.9753 24.8519 13.866C25.038 13.7527 25.2075 13.6216 25.3607 13.4727C25.5188 13.3198 25.6593 13.1604 25.7821 12.9946ZM34.2939 9.96444C34.3002 10.3408 34.2918 10.7478 34.2687 11.1853C34.2501 11.6232 34.2123 12.0706 34.1551 12.5274C34.0979 12.9843 34.0201 13.4412 33.9217 13.8982C33.8237 14.3508 33.6979 14.7843 33.5444 15.1989C33.3913 15.609 33.2094 15.9886 32.9986 16.3376C32.7877 16.6866 32.5414 16.9815 32.2595 17.2222C31.9816 17.4679 31.6646 17.65 31.3085 17.7684C30.9564 17.8917 30.5606 17.9303 30.1209 17.8841C29.6224 17.8317 29.1029 17.6511 28.5626 17.3423L27.9545 18.2888L27.5418 15.5441C27.7177 15.8329 27.9035 16.0701 28.0994 16.2557C28.2998 16.4417 28.4929 16.588 28.6788 16.6946C28.8687 16.8062 29.0438 16.8842 29.2041 16.9286C29.3689 16.9734 29.5035 17.0013 29.6077 17.0122C29.9794 17.0513 30.3226 16.9682 30.6374 16.763C30.9563 16.5628 31.2485 16.2682 31.5139 15.8791C31.1914 15.4603 30.8812 15.0107 30.5834 14.5303C30.2907 14.0459 30.0325 13.5376 29.8089 13.0054C29.5858 12.4688 29.4083 11.9117 29.2766 11.3342C29.1493 10.7572 29.0902 10.1644 29.0992 9.55592L28.0471 8.84046L31.2419 8.7226L30.5737 9.45657C30.5958 10.38 30.7283 11.2989 30.9713 12.2134C31.2143 13.128 31.5578 14.0668 32.0019 15.0299C32.1554 14.7024 32.296 14.346 32.4235 13.9607C32.5556 13.576 32.6742 13.1668 32.7794 12.7334C32.889 12.3004 32.9845 11.8499 33.0658 11.3819C33.1475 10.9094 33.2186 10.4288 33.2791 9.94026L32.3705 8.84122C32.7438 8.90795 33.0721 8.96765 33.3552 9.02032C33.6429 9.07347 33.8923 9.12031 34.1034 9.16083C34.315 9.19681 34.4926 9.22922 34.6362 9.25807C34.7848 9.28285 34.9065 9.30251 35.0012 9.31705C35.2214 9.35852 35.3518 9.3814 35.3926 9.38568L34.2939 9.96444ZM35.9451 11.9114L36.1203 10.8987L40.6262 10.9943L40.449 12.6803L35.9451 11.9114ZM47.5688 13.085C47.5435 13.3252 47.5028 13.5821 47.4465 13.8557C47.3903 14.1293 47.3199 14.406 47.2355 14.6858C47.1557 14.9661 47.0649 15.2407 46.9634 15.5096C46.8668 15.7744 46.7656 16.018 46.6597 16.2406L48.0006 17.4126L45.449 17.0344L45.6933 16.2146C45.3856 16.526 45.0432 16.7535 44.6661 16.8971C44.294 17.0368 43.8726 17.1002 43.402 17.0873C43.0184 17.0745 42.6881 17.0123 42.4112 16.9007C42.1383 16.7941 41.9152 16.6493 41.742 16.4661C41.5738 16.2789 41.457 16.0604 41.3916 15.8106C41.3267 15.5564 41.3099 15.2797 41.3414 14.9805C41.3704 14.7041 41.4665 14.4438 41.6297 14.1997C41.7933 13.9512 42.0124 13.7405 42.2872 13.5677C42.5665 13.3955 42.8982 13.27 43.2822 13.1912C43.6667 13.1079 44.0947 13.091 44.566 13.1405C44.7836 13.1634 45.0307 13.21 45.3074 13.2803C45.5887 13.3511 45.8493 13.4656 46.0893 13.6237C46.0957 13.3448 46.0822 13.0593 46.0487 12.7671C46.0203 12.4708 45.9595 12.1987 45.8665 11.9506C45.7734 11.7025 45.6393 11.496 45.4642 11.3309C45.2941 11.1618 45.0685 11.0625 44.7875 11.033C44.5473 11.0077 44.3087 11.0331 44.0716 11.109C43.8345 11.1849 43.6065 11.3052 43.3875 11.4701C43.1731 11.6354 42.9725 11.8435 42.7858 12.0942C42.599 12.3449 42.4336 12.6323 42.2896 12.9563L42.0687 9.56497L42.7927 10.9814C43.0334 10.7409 43.2706 10.5551 43.5043 10.4238C43.7386 10.2881 43.9665 10.1906 44.1881 10.1314C44.4147 10.0682 44.6291 10.0334 44.8314 10.0272C45.0382 10.0214 45.2345 10.0283 45.4203 10.0478C45.7674 10.1027 46.0816 10.209 46.3629 10.3669C46.6491 10.5207 46.8887 10.7269 47.0814 10.9854C47.2747 11.2394 47.4147 11.5428 47.5013 11.8956C47.5925 12.2489 47.615 12.6453 47.5688 13.085ZM45.9328 15.1126C45.9552 14.9866 45.9749 14.8649 45.9918 14.7476C46.0087 14.6302 46.0231 14.5149 46.035 14.4016L46.0436 14.32C45.8871 14.2394 45.7267 14.1744 45.5623 14.1251C45.403 14.0717 45.2538 14.0308 45.1147 14.0024C44.9761 13.9695 44.8569 13.9478 44.7572 13.9373C44.6625 13.9228 44.5993 13.9139 44.5676 13.9105C44.3083 13.8924 44.0789 13.9165 43.8795 13.9826C43.6801 14.0487 43.5101 14.1408 43.3693 14.2589C43.2336 14.3729 43.1257 14.5059 43.0456 14.6579C42.97 14.8103 42.9241 14.9636 42.9079 15.1177C42.8712 15.4667 42.9272 15.7406 43.0758 15.9395C43.2295 16.1344 43.4695 16.249 43.7958 16.2833C44.0134 16.3062 44.2236 16.2893 44.4266 16.2327C44.6296 16.1762 44.8216 16.0932 45.0026 15.984C45.1887 15.8706 45.3583 15.7395 45.5114 15.5907C45.6695 15.4377 45.81 15.2784 45.9328 15.1126ZM47.9051 17.4713L48.9007 16.5655L49.8475 12.0047L48.5216 10.8206L50.8167 11.2199L50.7438 11.9133C50.9403 11.7003 51.1381 11.5401 51.3373 11.4327C51.541 11.3258 51.7253 11.2512 51.8901 11.209C52.0831 11.1605 52.2707 11.1413 52.4529 11.1513C52.7747 11.1851 53.0601 11.2816 53.3092 11.4406C53.5583 11.5997 53.7477 11.8029 53.8775 12.0502C54.0917 11.8436 54.328 11.6875 54.5866 11.5818C54.8456 11.4715 55.1179 11.4314 55.4035 11.4614C55.6618 11.4886 55.8958 11.5727 56.1055 11.7139C56.3152 11.8551 56.4882 12.0405 56.6244 12.2702C56.7652 12.5004 56.8647 12.7743 56.923 13.0921C56.9862 13.4057 56.9983 13.7484 56.9593 14.12C56.9312 14.3875 56.8837 14.6643 56.817 14.9505C56.7548 15.2373 56.6792 15.5203 56.5903 15.7997C56.5059 16.0795 56.4086 16.3511 56.2984 16.6144C56.1887 16.8733 56.0742 17.1133 55.9547 17.3344L56.8751 17.8642L53.4366 18.142L55.0505 17.1088C55.1744 16.6269 55.2667 16.1852 55.3272 15.7838C55.3927 15.3782 55.4405 15.0327 55.4705 14.7472C55.5472 14.0175 55.5146 13.4779 55.3726 13.1284C55.2351 12.7795 55.0055 12.5881 54.6837 12.5543C54.4888 12.5338 54.2865 12.5836 54.0769 12.7036C54.0927 12.8152 54.0941 12.9322 54.0812 13.0546C54.0522 13.3311 53.9995 13.6142 53.9232 13.9041C53.8515 14.1944 53.7666 14.4787 53.6686 14.7571C53.5706 15.0355 53.4645 15.3039 53.3503 15.5622C53.2361 15.8206 53.1245 16.054 53.0155 16.2625L53.8947 17.1179L51.155 16.8299L52.1506 16.1854C52.2493 15.7696 52.3331 15.3431 52.402 14.9058C52.4713 14.464 52.5265 14.0482 52.5674 13.6584C52.616 13.1962 52.5998 12.8278 52.5186 12.5535C52.442 12.2797 52.2654 12.1283 51.989 12.0992C51.8485 12.0844 51.7142 12.0978 51.5861 12.1393C51.4625 12.1813 51.3439 12.2422 51.2301 12.3219C51.1209 12.402 51.0147 12.4963 50.9117 12.6046C50.8132 12.7134 50.721 12.8274 50.6352 12.9467L50.2457 16.6519L51.3021 17.5878L47.9051 17.4713Z" fill="#C85E57"/>
</g>
<g filter="url(#filter1_d_102_6)">
<path d="M11.456 4.21724C11.7642 4.24963 12.0557 4.31005 12.3305 4.39851C12.6103 4.48291 12.8676 4.58556 13.1023 4.70646C13.3376 4.82283 13.5487 4.95042 13.7357 5.08922C13.9228 5.22802 14.0803 5.36372 14.2085 5.49633L16.104 4.46518L13.6611 8.15387L13.7198 6.09109C13.5979 5.98662 13.4634 5.8923 13.3165 5.80812C13.1745 5.71988 13.0289 5.64501 12.8796 5.58349C12.7352 5.51791 12.5943 5.46414 12.4566 5.42218C12.3194 5.37569 12.1974 5.33766 12.0906 5.3081C11.9837 5.27854 11.8965 5.25792 11.829 5.24624C11.7665 5.2305 11.733 5.2224 11.7284 5.22192C11.4202 5.18953 11.1583 5.19637 10.9427 5.24244C10.7271 5.28851 10.5478 5.35903 10.4049 5.45399C10.2666 5.54943 10.1606 5.6643 10.0869 5.79861C10.0182 5.92886 9.9765 6.06424 9.96173 6.20474C9.93172 6.49028 9.96516 6.73895 10.062 6.95076C10.1594 7.15804 10.3201 7.35135 10.5441 7.53069C10.7681 7.71004 11.0588 7.88723 11.4162 8.06226C11.774 8.23276 12.1964 8.4215 12.6833 8.62847C12.9769 8.75557 13.2489 8.91475 13.4991 9.10602C13.7544 9.29324 13.9703 9.5061 14.1469 9.74461C14.3239 9.97859 14.455 10.2352 14.5402 10.5146C14.6304 10.7898 14.6596 11.0793 14.6277 11.3829C14.5905 11.7365 14.5075 12.0462 14.3788 12.3122C14.2505 12.5737 14.0915 12.7998 13.9019 12.9907C13.7173 13.1775 13.5086 13.332 13.2758 13.4542C13.0435 13.5718 12.805 13.6613 12.5603 13.7226C12.3196 13.789 12.0772 13.8277 11.8332 13.8387C11.5932 13.8547 11.369 13.8517 11.1605 13.8298C10.5487 13.7655 10.0044 13.6029 9.52776 13.342C9.05112 13.0811 8.61656 12.7468 8.2241 12.3389L6.32931 13.3633L8.66815 10.0761C8.68824 10.4081 8.75031 10.7331 8.85436 11.0511C8.96342 11.365 9.10755 11.6505 9.28673 11.9076C9.46591 12.1647 9.68182 12.3776 9.93446 12.5462C10.1871 12.7148 10.4721 12.8158 10.7893 12.8491C11.0431 12.8758 11.2783 12.8616 11.4949 12.8064C11.716 12.7518 11.908 12.6689 12.0709 12.5577C12.2343 12.442 12.3656 12.3045 12.4648 12.1454C12.569 11.9822 12.6309 11.8077 12.6504 11.6219C12.6776 11.3636 12.6284 11.1339 12.5029 10.9328C12.3779 10.7272 12.2052 10.5395 11.9847 10.3697C11.7648 10.1953 11.5094 10.031 11.2186 9.87674C10.9328 9.7184 10.6382 9.55683 10.3347 9.39205C10.0313 9.22727 9.73605 9.0496 9.44905 8.85905C9.16659 8.66898 8.91872 8.45505 8.70542 8.21726C8.49261 7.97494 8.32893 7.70112 8.21438 7.39581C8.09983 7.0905 8.06328 6.74068 8.10473 6.34637C8.13664 6.0427 8.22677 5.75203 8.37509 5.47435C8.52843 5.19261 8.74188 4.94926 9.01546 4.74432C9.29356 4.53984 9.63489 4.38784 10.0394 4.28831C10.4445 4.18424 10.9166 4.16055 11.456 4.21724ZM14.6577 13.7781L15.794 13.0383L17.0727 5.51556L15.636 4.60158L18.0848 4.45342L17.7097 8.28383C17.8871 8.07794 18.0762 7.91451 18.2768 7.79354C18.4778 7.66804 18.671 7.57378 18.8564 7.51078C19.0462 7.44825 19.2176 7.40899 19.3705 7.39298C19.528 7.37745 19.6497 7.37421 19.7358 7.38326C20.1619 7.42804 20.5141 7.54296 20.7925 7.72803C21.0714 7.90856 21.2874 8.14205 21.4406 8.42851C21.5983 8.71545 21.6987 9.04677 21.7417 9.42246C21.7897 9.7941 21.7913 10.1929 21.7465 10.619C21.7217 10.8547 21.6749 11.1041 21.606 11.3672C21.5417 11.6308 21.4635 11.8952 21.3714 12.1605C21.2799 12.4212 21.18 12.6742 21.0717 12.9194C20.9684 13.1606 20.8653 13.3789 20.7623 13.5743L22.0298 14.4636L18.4696 14.4606L20.1007 13.2642C20.1994 12.9354 20.2778 12.6252 20.3359 12.3335C20.3986 12.0422 20.4433 11.7697 20.47 11.5158C20.4833 11.3889 20.4905 11.2339 20.4914 11.0507C20.4969 10.868 20.4872 10.6768 20.4623 10.4771C20.438 10.2729 20.3975 10.0694 20.3409 9.86636C20.2844 9.66338 20.2007 9.47816 20.09 9.31073C19.9838 9.14377 19.8474 9.00341 19.6806 8.88965C19.5184 8.77637 19.3172 8.7071 19.077 8.68186C18.8413 8.65709 18.5933 8.68372 18.3331 8.76177C18.0774 8.84028 17.8379 8.98237 17.6147 9.18803L17.2321 13.2857L18.057 14.1354L14.6577 13.7781ZM28.8341 11.0683C28.8088 11.3086 28.7681 11.5655 28.7118 11.8391C28.6556 12.1127 28.5853 12.3894 28.5009 12.6692C28.421 12.9495 28.3303 13.2241 28.2287 13.493C28.1321 13.7577 28.0309 14.0014 27.925 14.224L29.2659 15.396L26.7143 15.0178L26.9586 14.198C26.6509 14.5094 26.3085 14.7369 25.9314 14.8805C25.5593 15.0201 25.1379 15.0835 24.6673 15.0707C24.2837 15.0579 23.9535 14.9957 23.6765 14.8841C23.4036 14.7775 23.1805 14.6327 23.0073 14.4495C22.8391 14.2623 22.7223 14.0438 22.6569 13.794C22.592 13.5398 22.5753 13.2631 22.6067 12.9639C22.6358 12.6874 22.7319 12.4272 22.895 12.1831C23.0586 11.9346 23.2778 11.7239 23.5525 11.5511C23.8318 11.3789 24.1635 11.2533 24.5475 11.1746C24.9321 11.0913 25.36 11.0744 25.8314 11.1239C26.0489 11.1468 26.296 11.1934 26.5728 11.2637C26.854 11.3345 27.1146 11.449 27.3546 11.6071C27.361 11.3282 27.3475 11.0427 27.3141 10.7505C27.2856 10.4542 27.2249 10.1821 27.1318 9.934C27.0387 9.68593 26.9046 9.47938 26.7295 9.31433C26.5594 9.14524 26.3339 9.04592 26.0529 9.01639C25.8126 8.99114 25.574 9.01646 25.3369 9.09235C25.0998 9.16825 24.8718 9.28863 24.6528 9.45349C24.4384 9.61883 24.2378 9.82687 24.0511 10.0776C23.8643 10.3283 23.699 10.6157 23.5549 10.9396L23.334 7.54836L24.0581 8.96482C24.2987 8.72433 24.5359 8.53847 24.7697 8.40724C25.0039 8.27147 25.2318 8.17399 25.4534 8.1148C25.68 8.05155 25.8944 8.01681 26.0967 8.01058C26.3035 8.00482 26.4998 8.01171 26.6857 8.03124C27.0328 8.08605 27.3469 8.19239 27.6282 8.35025C27.9145 8.50407 28.154 8.71025 28.3468 8.96879C28.54 9.22281 28.68 9.52621 28.7666 9.87899C28.8578 10.2323 28.8803 10.6287 28.8341 11.0683ZM27.1981 13.0959C27.2205 12.97 27.2402 12.8483 27.2571 12.731C27.274 12.6136 27.2884 12.4983 27.3004 12.385L27.3089 12.3034C27.1524 12.2228 26.992 12.1578 26.8276 12.1085C26.6683 12.055 26.5191 12.0142 26.38 11.9858C26.2414 11.9529 26.1223 11.9312 26.0225 11.9207C25.9278 11.9062 25.8646 11.8973 25.8329 11.8939C25.5736 11.8758 25.3443 11.8998 25.1448 11.966C24.9454 12.0321 24.7754 12.1242 24.6347 12.2423C24.4989 12.3563 24.391 12.4893 24.3109 12.6413C24.2353 12.7937 24.1894 12.947 24.1732 13.1011C24.1365 13.4501 24.1925 13.724 24.3412 13.9229C24.4948 14.1178 24.7348 14.2324 25.0611 14.2667C25.2787 14.2895 25.4889 14.2727 25.6919 14.2161C25.8949 14.1596 26.0869 14.0766 26.268 13.9674C26.454 13.854 26.6236 13.7229 26.7767 13.574C26.9348 13.4211 27.0753 13.2618 27.1981 13.0959ZM35.7099 10.0658C35.7162 10.4422 35.7078 10.8491 35.6847 11.2866C35.6662 11.7246 35.6283 12.172 35.5712 12.6288C35.514 13.0856 35.4362 13.5425 35.3377 13.9996C35.2398 14.4521 35.114 14.8857 34.9604 15.3003C34.8074 15.7103 34.6254 16.0899 34.4146 16.4389C34.2038 16.7879 33.9574 17.0828 33.6755 17.3235C33.3976 17.5693 33.0807 17.7513 32.7245 17.8697C32.3725 17.9931 31.9766 18.0317 31.537 17.9854C31.0384 17.933 30.519 17.7524 29.9786 17.4436L29.3705 18.3901L28.9579 15.6454C29.1337 15.9343 29.3196 16.1715 29.5155 16.357C29.7159 16.543 29.909 16.6894 30.0948 16.796C30.2847 16.9076 30.4598 16.9855 30.6201 17.0299C30.785 17.0747 30.9195 17.1026 31.0237 17.1135C31.3954 17.1526 31.7386 17.0695 32.0535 16.8643C32.3724 16.6642 32.6645 16.3695 32.93 15.9804C32.6074 15.5616 32.2972 15.112 31.9995 14.6316C31.7067 14.1472 31.4485 13.6389 31.2249 13.1068C31.0018 12.5701 30.8244 12.013 30.6926 11.4355C30.5654 10.8585 30.5062 10.2658 30.5152 9.65724L29.4631 8.94178L32.658 8.82392L31.9897 9.55789C32.0118 10.4813 32.1443 11.4002 32.3873 12.3147C32.6303 13.2293 32.9738 14.1681 33.4179 15.1313C33.5715 14.8037 33.712 14.4473 33.8396 14.0621C33.9717 13.6773 34.0903 13.2682 34.1954 12.8347C34.3051 12.4018 34.4005 11.9513 34.4818 11.4832C34.5636 11.0107 34.6347 10.5301 34.6952 10.0416L33.7865 8.94253C34.1599 9.00927 34.4881 9.06897 34.7713 9.12164C35.0589 9.17479 35.3083 9.22162 35.5195 9.26214C35.7311 9.29813 35.9087 9.33054 36.0523 9.35938C36.2009 9.38417 36.3225 9.40383 36.4172 9.41837C36.6374 9.45984 36.7679 9.48272 36.8087 9.487L35.7099 10.0658ZM37.3612 12.0127L37.5363 11.0001L42.0423 11.0956L41.865 12.7816L37.3612 12.0127ZM48.9848 13.1863C48.9596 13.4265 48.9188 13.6834 48.8626 13.957C48.8063 14.2306 48.736 14.5073 48.6516 14.7872C48.5717 15.0675 48.481 15.342 48.3794 15.6109C48.2828 15.8757 48.1816 16.1194 48.0757 16.3419L49.4166 17.5139L46.865 17.1357L47.1093 16.316C46.8016 16.6273 46.4592 16.8548 46.0821 16.9985C45.71 17.1381 45.2887 17.2015 44.818 17.1887C44.4345 17.1758 44.1042 17.1136 43.8272 17.002C43.5543 16.8955 43.3313 16.7506 43.1581 16.5674C42.9899 16.3802 42.8731 16.1617 42.8077 15.912C42.7427 15.6577 42.726 15.381 42.7574 15.0818C42.7865 14.8054 42.8826 14.5451 43.0457 14.3011C43.2093 14.0525 43.4285 13.8418 43.7033 13.6691C43.9826 13.4968 44.3142 13.3713 44.6983 13.2925C45.0828 13.2092 45.5107 13.1923 45.9821 13.2418C46.1996 13.2647 46.4468 13.3113 46.7235 13.3816C47.0047 13.4524 47.2653 13.5669 47.5053 13.725C47.5117 13.4462 47.4982 13.1606 47.4648 12.8684C47.4363 12.5722 47.3756 12.3 47.2825 12.0519C47.1895 11.8039 47.0554 11.5973 46.8802 11.4323C46.7101 11.2632 46.4846 11.1638 46.2036 11.1343C45.9634 11.1091 45.7247 11.1344 45.4876 11.2103C45.2505 11.2862 45.0225 11.4066 44.8035 11.5714C44.5891 11.7368 44.3885 11.9448 44.2018 12.1955C44.0151 12.4463 43.8497 12.7336 43.7057 13.0576L43.4847 9.66629L44.2088 11.0827C44.4494 10.8423 44.6866 10.6564 44.9204 10.5252C45.1546 10.3894 45.3825 10.2919 45.6041 10.2327C45.8307 10.1695 46.0452 10.1347 46.2474 10.1285C46.4543 10.1227 46.6506 10.1296 46.8364 10.1492C47.1835 10.204 47.4977 10.3103 47.7789 10.4682C48.0652 10.622 48.3047 10.8282 48.4975 11.0867C48.6908 11.3407 48.8307 11.6441 48.9173 11.9969C49.0085 12.3502 49.031 12.7466 48.9848 13.1863ZM47.3489 15.2139C47.3713 15.0879 47.3909 14.9663 47.4078 14.8489C47.4248 14.7315 47.4392 14.6162 47.4511 14.5029L47.4597 14.4213C47.3032 14.3407 47.1427 14.2757 46.9784 14.2264C46.819 14.173 46.6698 14.1321 46.5307 14.1037C46.3921 14.0708 46.273 14.0491 46.1733 14.0387C46.0786 14.0241 46.0154 14.0152 45.9836 14.0118C45.7243 13.9938 45.495 14.0178 45.2956 14.0839C45.0962 14.15 44.9261 14.2421 44.7854 14.3602C44.6497 14.4742 44.5417 14.6072 44.4616 14.7592C44.386 14.9116 44.3401 15.0649 44.3239 15.219C44.2873 15.568 44.3432 15.8419 44.4919 16.0409C44.6455 16.2357 44.8855 16.3503 45.2118 16.3846C45.4294 16.4075 45.6397 16.3906 45.8427 16.3341C46.0456 16.2775 46.2377 16.1946 46.4187 16.0853C46.6047 15.972 46.7743 15.8408 46.9274 15.692C47.0856 15.539 47.226 15.3797 47.3489 15.2139ZM49.3211 17.5726L50.3168 16.6668L51.2635 12.106L49.9377 10.9219L52.2327 11.3212L52.1598 12.0147C52.3563 11.8016 52.5542 11.6414 52.7533 11.534C52.957 11.4271 53.1413 11.3526 53.3061 11.3103C53.4991 11.2619 53.6867 11.2426 53.869 11.2526C54.1907 11.2864 54.4762 11.3829 54.7252 11.5419C54.9743 11.701 55.1637 11.9042 55.2935 12.1516C55.5077 11.945 55.7441 11.7888 56.0026 11.6831C56.2617 11.5728 56.534 11.5327 56.8195 11.5627C57.0778 11.5899 57.3119 11.6741 57.5216 11.8152C57.7313 11.9564 57.9042 12.1419 58.0405 12.3715C58.1812 12.6017 58.2808 12.8757 58.339 13.1934C58.4023 13.5071 58.4144 13.8497 58.3753 14.2214C58.3472 14.4888 58.2998 14.7656 58.233 15.0519C58.1708 15.3386 58.0952 15.6216 58.0063 15.901C57.9219 16.1808 57.8246 16.4524 57.7145 16.7158C57.6048 16.9746 57.4902 17.2146 57.3707 17.4357L58.2911 17.9655L54.8526 18.2433L56.4665 17.2101C56.5905 16.7282 56.6827 16.2866 56.7432 15.8851C56.8088 15.4796 56.8566 15.134 56.8866 14.8485C56.9633 14.1188 56.9306 13.5792 56.7886 13.2298C56.6512 12.8808 56.4216 12.6894 56.0998 12.6556C55.9049 12.6351 55.7026 12.6849 55.4929 12.8049C55.5087 12.9165 55.5101 13.0335 55.4973 13.1559C55.4682 13.4324 55.4156 13.7155 55.3393 14.0054C55.2675 14.2957 55.1826 14.58 55.0846 14.8584C54.9866 15.1368 54.8805 15.4052 54.7663 15.6635C54.6521 15.9219 54.5405 16.1553 54.4315 16.3638L55.3108 17.2192L52.571 16.9313L53.5667 16.2867C53.6654 15.8709 53.7492 15.4444 53.818 15.0071C53.8874 14.5653 53.9425 14.1495 53.9835 13.7598C54.0321 13.2975 54.0158 12.9292 53.9347 12.6549C53.858 12.381 53.6815 12.2296 53.405 12.2005C53.2645 12.1858 53.1302 12.1991 53.0021 12.2407C52.8786 12.2827 52.7599 12.3435 52.6461 12.4232C52.5369 12.5034 52.4308 12.5976 52.3277 12.7059C52.2292 12.8147 52.1371 12.9287 52.0512 13.048L51.6618 16.7532L52.7182 17.6891L49.3211 17.5726Z" fill="#57ADC8"/>
</g>
<defs>
<filter id="filter0_d_102_6" x="0.642456" y="3.2274" width="81.198" height="46.0632" filterUnits="userSpaceOnUse" color-interpolation-filters="sRGB">
<feFlood flood-opacity="0" result="BackgroundImageFix"/>
<feColorMatrix in="SourceAlpha" type="matrix" values="0 0 0 0 0 0 0 0 0 0 0 0 0 0 0 0 0 0 127 0" result="hardAlpha"/>
<feOffset dy="4"/>
<feGaussianBlur stdDeviation="2"/>
<feComposite in2="hardAlpha" operator="out"/>
<feColorMatrix type="matrix" values="0 0 0 0 0 0 0 0 0 0 0 0 0 0 0 0 0 0 0.25 0"/>
<feBlend mode="normal" in2="BackgroundImageFix" result="effect1_dropShadow_102_6"/>
<feBlend mode="normal" in="SourceGraphic" in2="effect1_dropShadow_102_6" result="shape"/>
</filter>
<filter id="filter1_d_102_6" x="2.0585" y="3.32872" width="61.198" height="26.0632" filterUnits="userSpaceOnUse" color-interpolation-filters="sRGB">
<feFlood flood-opacity="0" result="BackgroundImageFix"/>
<feColorMatrix in="SourceAlpha" type="matrix" values="0 0 0 0 0 0 0 0 0 0 0 0 0 0 0 0 0 0 127 0" result="hardAlpha"/>
<feOffset dy="4"/>
<feGaussianBlur stdDeviation="2"/>
<feComposite in2="hardAlpha" operator="out"/>
<feColorMatrix type="matrix" values="0 0 0 0 0 0 0 0 0 0 0 0 0 0 0 0 0 0 0.25 0"/>
<feBlend mode="normal" in2="BackgroundImageFix" result="effect1_dropShadow_102_6"/>
<feBlend mode="normal" in="SourceGraphic" in2="effect1_dropShadow_102_6" result="shape"/>
</filter>
</defs>
</svg>
